<svg xmlns="http://www.w3.org/2000/svg" xml:space="preserve" width="742.76" height="719.64" viewBox="0 0 742.76 719.64" role="img" aria-label="Figure 7 — the pipeline: from symbol streams to grad_z">
<title>Figure 7 — the pipeline: from symbol streams to grad_z</title>
<desc>Pipeline from symbol streams to grad_z.</desc>
<defs><marker id="arr-2563eb" viewBox="0 0 10 10" refX="9" refY="5" markerWidth="7" markerHeight="7" orient="auto-start-reverse"><path d="M 0 0 L 10 5 L 0 10 z" fill="#2563eb"/></marker><marker id="arr-dc2626" viewBox="0 0 10 10" refX="9" refY="5" markerWidth="7" markerHeight="7" orient="auto-start-reverse"><path d="M 0 0 L 10 5 L 0 10 z" fill="#dc2626"/></marker><marker id="arr-374151" viewBox="0 0 10 10" refX="9" refY="5" markerWidth="7" markerHeight="7" orient="auto-start-reverse"><path d="M 0 0 L 10 5 L 0 10 z" fill="#374151"/></marker></defs>
<rect x="0" y="0" width="742.76" height="719.64" fill="#ffffff"/>
<rect x="68.48" y="254.8" width="426.88" height="225.84" rx="6" fill="none" stroke="#6b7280" stroke-width="1.5" stroke-dasharray="6,3"/>
<path d="M 281.92 74.88 L 281.92 92.88" fill="none" stroke="#374151" stroke-width="1.5" marker-end="url(#arr-374151)"/>
<path d="M 281.92 138.34 L 281.92 156.34" fill="none" stroke="#374151" stroke-width="1.5" marker-end="url(#arr-374151)"/>
<path d="M 281.92 183.34 L 281.92 201.34" fill="none" stroke="#374151" stroke-width="1.5" marker-end="url(#arr-374151)"/>
<path d="M 281.92 246.8 L 281.92 254.8" fill="none" stroke="#374151" stroke-width="1.5" marker-end="url(#arr-374151)"/>
<path d="M 281.92 480.64 L 281.92 498.64" fill="none" stroke="#374151" stroke-width="1.5" marker-end="url(#arr-374151)"/>
<path d="M 281.92 525.64 L 281.92 543.64" fill="none" stroke="#374151" stroke-width="1.5" marker-end="url(#arr-374151)"/>
<path d="M 281.92 570.64 L 281.92 588.64" fill="none" stroke="#374151" stroke-width="1.5" marker-end="url(#arr-374151)"/>
<path d="M 281.92 615.64 L 281.92 633.64" fill="none" stroke="#374151" stroke-width="1.5" marker-end="url(#arr-374151)"/>
<path d="M 281.92 660.64 L 281.92 678.64" fill="none" stroke="#374151" stroke-width="1.5" marker-end="url(#arr-374151)"/>
<path d="M 404.76 169.84 L 589.84 169.84 L 589.84 602.14 L 404.76 602.14" fill="none" stroke="#2563eb" stroke-width="1.5" marker-end="url(#arr-2563eb)"/>
<path d="M 119.08 602.14 L 159.08 602.14" fill="none" stroke="#dc2626" stroke-width="1.5" marker-end="url(#arr-dc2626)"/>
<rect x="183.26" y="47.88" width="197.32" height="27" rx="4" fill="#eff6ff" stroke="#2563eb" stroke-width="1.5"/>
<text x="281.92" y="65.54" font-family="Consolas,Menlo,monospace" font-size="13" fill="#111827" text-anchor="middle">q, k  (symbol streams)</text>
<rect x="110.72" y="92.88" width="342.4" height="45.46" rx="4" fill="#eff6ff" stroke="#2563eb" stroke-width="1.5"/>
<text x="281.92" y="110.54" font-family="Consolas,Menlo,monospace" font-size="13" fill="#111827" text-anchor="middle" font-weight="bold">Part 2 — fast forward</text>
<text x="281.92" y="129" font-family="Consolas,Menlo,monospace" font-size="13" fill="#111827" text-anchor="middle">suffix array + LCE + static certificates</text>
<rect x="159.08" y="156.34" width="245.68" height="27" rx="4" fill="#eff6ff" stroke="#2563eb" stroke-width="1.5"/>
<text x="281.92" y="174" font-family="Consolas,Menlo,monospace" font-size="13" fill="#111827" text-anchor="middle">ell[t], route[t]  (baseline)</text>
<rect x="62.36" y="201.34" width="439.12" height="45.46" rx="4" fill="#eff6ff" stroke="#2563eb" stroke-width="1.5"/>
<text x="281.92" y="219" font-family="Consolas,Menlo,monospace" font-size="13" fill="#111827" text-anchor="middle" font-weight="bold">Part 4 — rebuild workbench</text>
<text x="281.92" y="237.46" font-family="Consolas,Menlo,monospace" font-size="13" fill="#111827" text-anchor="middle">bidirectional suffix indexes -&gt; CausalCutSuffixIndex</text>
<rect x="138.93" y="264.8" width="285.98" height="45.46" rx="4" fill="#eff6ff" stroke="#2563eb" stroke-width="1.5"/>
<text x="281.92" y="282.46" font-family="Consolas,Menlo,monospace" font-size="13" fill="#111827" text-anchor="middle">Part 6 — Q-side deletion surfaces</text>
<text x="281.92" y="300.92" font-family="Consolas,Menlo,monospace" font-size="13" fill="#111827" text-anchor="middle">(latest-occurrence heads)</text>
<rect x="126.84" y="318.26" width="310.16" height="45.46" rx="4" fill="#eff6ff" stroke="#2563eb" stroke-width="1.5"/>
<text x="281.92" y="335.92" font-family="Consolas,Menlo,monospace" font-size="13" fill="#111827" text-anchor="middle">Part 5 — K-side deletion oracles A/H</text>
<text x="281.92" y="354.38" font-family="Consolas,Menlo,monospace" font-size="13" fill="#111827" text-anchor="middle">-&gt; max(A, H) surfaces</text>
<rect x="102.66" y="371.72" width="358.52" height="45.46" rx="4" fill="#fef2f2" stroke="#dc2626" stroke-width="1.5"/>
<text x="281.92" y="389.38" font-family="Consolas,Menlo,monospace" font-size="13" fill="#111827" text-anchor="middle">Part 12/14 — shared one-bit repair bridges</text>
<text x="281.92" y="407.84" font-family="Consolas,Menlo,monospace" font-size="13" fill="#111827" text-anchor="middle">(sparse / diagonal)</text>
<rect x="78.48" y="425.18" width="406.88" height="45.46" rx="4" fill="#fef2f2" stroke="#dc2626" stroke-width="1.5"/>
<text x="281.92" y="442.84" font-family="Consolas,Menlo,monospace" font-size="13" fill="#111827" text-anchor="middle">Part 10/13 — surface-conditioned repair compiler</text>
<text x="281.92" y="461.3" font-family="Consolas,Menlo,monospace" font-size="13" fill="#111827" text-anchor="middle">(maximal-run square certificates)</text>
<rect x="14" y="498.64" width="535.84" height="27" rx="4" fill="#ffffff" stroke="#111827" stroke-width="1.5"/>
<text x="281.92" y="516.3" font-family="Consolas,Menlo,monospace" font-size="13" fill="#111827" text-anchor="middle">RepairIR:  q_terms, k_terms, q_delete_runs, k_delete_runs, zeros</text>
<rect x="50.27" y="543.64" width="463.3" height="27" rx="4" fill="#ffffff" stroke="#111827" stroke-width="1.5"/>
<text x="281.92" y="561.3" font-family="Consolas,Menlo,monospace" font-size="13" fill="#111827" text-anchor="middle">Part 8 — numerical contraction (no string queries left)</text>
<rect x="159.08" y="588.64" width="245.68" height="27" rx="4" fill="#fef2f2" stroke="#dc2626" stroke-width="1.5"/>
<text x="281.92" y="606.3" font-family="Consolas,Menlo,monospace" font-size="13" fill="#111827" text-anchor="middle">credit_q, credit_k, credit_v</text>
<rect x="159.08" y="633.64" width="245.68" height="27" rx="4" fill="#ffffff" stroke="#111827" stroke-width="1.5"/>
<text x="281.92" y="651.3" font-family="Consolas,Menlo,monospace" font-size="13" fill="#111827" text-anchor="middle">Part 11 — orient = 1 - 2*bit</text>
<rect x="151.02" y="678.64" width="261.8" height="27" rx="4" fill="#ffffff" stroke="#111827" stroke-width="1.5"/>
<text x="281.92" y="696.3" font-family="Consolas,Menlo,monospace" font-size="13" fill="#111827" text-anchor="middle">grad_z  (identity / bernoulli)</text>
<rect x="50.72" y="588.64" width="68.36" height="27" rx="4" fill="#fef2f2" stroke="#dc2626" stroke-width="1.5"/>
<text x="84.9" y="606.3" font-family="Consolas,Menlo,monospace" font-size="13" fill="#111827" text-anchor="middle">grad_y</text>
<text x="43.26" y="28" font-family="Consolas,Menlo,monospace" font-size="14" fill="#111827" text-anchor="start" font-weight="bold">Figure 7 — the pipeline: from symbol streams to grad_z</text>
<text x="661.8" y="389.47" font-family="Consolas,Menlo,monospace" font-size="12" fill="#2563eb" text-anchor="middle">baseline ell/route</text>
</svg>